<?xml version="1.0" encoding="utf-8"?>
<!-- Generator: Adobe Illustrator 25.2.3, SVG Export Plug-In . SVG Version: 6.00 Build 0)  -->
<svg version="1.1" id="Layer_1" xmlns="http://www.w3.org/2000/svg" xmlns:xlink="http://www.w3.org/1999/xlink" x="0px" y="0px"
	 viewBox="0 0 337.5 51.2" style="enable-background:new 0 0 337.5 51.2;" xml:space="preserve">
<g>
	<path d="M26.2,30.4v-9.6c0.1,0,0.3,0,0.4,0c10.2,0,12.2-1.6,12.2-3.9c0-3.7-4.5-4.5-8-4.6c-0.6,0-1.1,0-1.5,0c-0.2,0-0.5,0-0.7,0
		c-0.1,0-0.1,0-0.1,0l0.1,0c-0.3,0-0.5,0-0.8,0c-9,0-9.5,3.7-9.5,5.7H0C0,12.7,2.7,0.4,27.8,0.4c7.9,0,29,0,29,15.9
		c0,4.1-1.8,7.8-6.1,9.2c4.3,1,6.2,5.1,6.2,9.2c0,10.7-9.6,16.2-28.5,16.2c-7.8,0-28.5,0-28.5-18.7h18.3c0,4.5,0.6,6.7,10.2,6.7
		c1.2,0,2.3,0,3.2-0.1c3.5-0.2,7.1-1.2,7.1-4.6C38.8,32,36.9,30.4,26.2,30.4L26.2,30.4z"/>
	<path d="M60.8,50.9V0.5h34.6c14.7,0,28.7,3.7,28.7,25.2c0,19.5-15.5,25.2-28.6,25.2H60.8z M106.6,25.8c0-6.3-3.2-11.4-12.2-11.4
		H77.6v22.8h16.8C102.6,37.2,106.6,32.1,106.6,25.8z"/>
	<path d="M206.9,50.9h-19.4l-3.8-8.5h-25l-3.8,8.5h-19.3l22.6-50.4h26.1L206.9,50.9z M177.7,27.8l-6.5-13.2l-6.5,13.2H177.7z"/>
	<path d="M246.4,0.3c4.8,0,21.8,0.6,21.8,18.6c0,9.4-4.4,14.4-9.3,17.1l10.3,14.9l-19.4-0.1l-8.6-11.9c-4.8,0-12.4,0-15.2,0v12
		h-16.7V0.3H246.4z M251.1,19.5c0-4.2-4.3-4.4-6.5-4.4c-2.2,0-18.5,0-18.5,0v9.1c0,0,16.4,0,18.8,0
		C247.3,24.2,251.1,23.7,251.1,19.5z"/>
	<path d="M337.5,0.3v16.7h-25v33.8h-16.7V17.1h-25V0.3H337.5z"/>
</g>
</svg>
