<?xml version="1.0" encoding="utf-8"?>
<!-- Generator: Adobe Illustrator 23.0.3, SVG Export Plug-In . SVG Version: 6.00 Build 0)  -->
<svg version="1.1" id="Layer_1" xmlns="http://www.w3.org/2000/svg" xmlns:xlink="http://www.w3.org/1999/xlink" x="0px" y="0px"
	 viewBox="0 0 402.3 83.9" style="enable-background:new 0 0 402.3 83.9;" xml:space="preserve">
<style type="text/css">
	.st0{fill:none;}
</style>
<g>
	<path class="st0" d="M52.9,47.3c1.7,3.4,2.5,7.1,2.6,10.8c0,3.5-0.8,7-2.3,10.2c-1.5,3.2-3.7,6.1-6.5,8.4c-2.7,2.4-5.8,4.2-9.2,5.3
		c-3.5,1.2-7.1,1.8-10.8,1.8c-3.6,0-7.3-0.6-10.7-1.8c-3.4-1.2-6.5-3-9.2-5.3c-3-2.5-5.4-5.7-6.9-9.4v-0.1l12.1-8.9
		c0.1,1.5,0.5,2.9,1.3,4.3c0.7,1.3,1.6,2.4,2.6,3.4c3,2.6,6.8,4,10.8,3.9c3.9,0.1,7.8-1.2,10.7-3.9c2.5-1.9,3.9-4.8,4-7.9
		c0-2.3-0.8-4.6-2.2-6.4c-1.4-1.9-3-3.7-4.8-5.2l-9.6-7.4l3.6-3.6c1.7-1.7,3-3,4-4.1c1.3-1.3,2.4-2.7,3.3-4.3
		c0.6-1.3,0.8-2.7,0.8-4.1c0-2.4-1.1-4.7-2.9-6.3c-1.9-1.7-4.4-2.7-6.9-2.6c-2.5,0-5,0.9-6.9,2.6C18,18.3,17,20.6,17,23H3
		c0-4.1,1.1-8,3.2-11.5c2.1-3.5,5.1-6.4,8.6-8.4C18.4,1,22.6,0,26.8,0c4.2,0,8.3,1,12,3.1c3.6,2,6.6,4.9,8.7,8.4
		c2.1,3.5,3.2,7.4,3.2,11.5c0.1,5.3-1.6,10.4-4.9,14.6C48.7,40.4,51.1,43.7,52.9,47.3z"/>
	<path class="st0" d="M96.3,83.1H70.5V0.9h25.8c5.6,0,11.1,1.1,16.2,3.2c5,2.1,9.4,5.3,13.1,9.4c3.4,3.8,6.1,8.2,7.8,13
		c3.6,10,3.6,20.9,0,30.9c-1.7,4.8-4.4,9.3-7.8,13.1c-3.6,4-8.1,7.2-13.1,9.4C107.4,82.1,101.9,83.2,96.3,83.1z M84.5,69.1h11.8
		c3.6,0,7.1-0.7,10.4-2.1c3.2-1.4,6-3.4,8.3-5.9c2.3-2.6,4-5.5,5.2-8.8c1.2-3.4,1.8-6.9,1.8-10.5c0-3.5-0.6-7-1.8-10.3
		c-1.2-3.2-2.9-6.2-5.2-8.7c-4.6-5.2-10.8-7.9-18.7-7.9H84.5V69.1z"/>
	<path class="st0" d="M206.2,71.9l-5.3,11.3h-15.5l38.1-82.2l36.3,82.2h-15.4l-5-11.3H206.2z M223.2,35l-10.5,22.8h20.5L223.2,35z"
		/>
	<path class="st0" d="M312.6,83.1L285,46.9v36.3h-14l-0.1-82.2H301c3.9,0,7.7,0.6,11.3,1.9c3.4,1.2,6.6,3.1,9.3,5.6
		c2.6,2.2,4.7,5,6.1,8.1c3.6,7.7,2.5,16.9-2.8,23.6c-2.7,3.5-6.4,6.2-10.5,7.8c-1.7,0.6-3.4,1.1-5.2,1.5c-1.4,0.3-2.9,0.5-4.3,0.6
		l25,33.3H312.6z M285,15v22.1h12.3c4.9,0,8.8-0.7,11.8-2c1.9-0.8,3.5-2,4.8-3.6c1.3-1.5,2-3.5,2-5.5c0-2.8-1.3-5.5-3.5-7.3
		c-2.7-2.5-6.5-3.8-11.3-3.8L285,15z"/>
	<path class="st0" d="M402.3,0.9V15h-24.8v68.1h-14V15H339V0.9L402.3,0.9z"/>
</g>
</svg>
