<?xml version="1.0" encoding="utf-8"?>
<!-- Generator: Adobe Illustrator 23.0.3, SVG Export Plug-In . SVG Version: 6.00 Build 0)  -->
<svg version="1.1" id="Layer_1" xmlns="http://www.w3.org/2000/svg" xmlns:xlink="http://www.w3.org/1999/xlink" x="0px" y="0px"
	 viewBox="0 0 745.8 85.4" style="enable-background:new 0 0 745.8 85.4;" xml:space="preserve">
<style type="text/css">
	.st0{fill:none;}
</style>
<g>
	<path class="st0" d="M0,83.5V1.2h14.1v82.2H0z"/>
	<path class="st0" d="M47.3,34.6v48.9h-14V0l50.8,50.8V1.2h14v84.1L47.3,34.6z"/>
	<path class="st0" d="M172.7,1.2v14.1H148v68.1h-14V15.4h-24.7V1.2L172.7,1.2z"/>
	<path class="st0" d="M184.1,83.5V1.2h52v14.1h-37.9v19.9h28.5v14.1h-28.5v20.1h37.9v14L184.1,83.5z"/>
	<path class="st0" d="M294.3,83.5l-27.6-36.2v36.2h-14l-0.1-82.2h30.1c3.8,0,7.7,0.6,11.3,1.9c3.4,1.2,6.6,3.1,9.3,5.6
		c2.6,2.2,4.7,5,6.1,8.1c3.6,7.7,2.6,16.9-2.8,23.6c-2.7,3.5-6.4,6.2-10.5,7.8c-1.7,0.6-3.4,1.1-5.2,1.5c-1.4,0.3-2.9,0.6-4.3,0.6
		l25,33.2L294.3,83.5z M266.7,15.4v22.1H279c4.9,0,8.8-0.7,11.7-2c1.9-0.8,3.5-2,4.8-3.6c1.3-1.5,2-3.5,2-5.5c0-2.8-1.3-5.5-3.5-7.3
		c-2.7-2.5-6.5-3.8-11.2-3.8L266.7,15.4z"/>
	<path class="st0" d="M342.3,72.2l-5.3,11.2h-15.5l38.1-82.2L396,83.5h-15.4l-5-11.2H342.3z M359.3,35.4l-10.5,22.8h20.5L359.3,35.4
		z"/>
	<path class="st0" d="M439.3,84.2c-7.3,0-14.5-1.9-20.8-5.7c-6.3-3.7-11.5-9-15.1-15.3c-3.7-6.4-5.6-13.6-5.6-21
		c0-14.9,7.8-28.7,20.7-36.3c6.3-3.7,13.5-5.7,20.8-5.6c5.8,0,11.5,1.2,16.8,3.6c5.3,2.3,10.1,5.8,13.9,10.2l-10.4,9.4
		c-2.6-2.9-5.8-5.2-9.3-6.8c-3.5-1.6-7.2-2.4-11.1-2.4c-4.9,0-9.6,1.3-13.8,3.7c-8.5,5.1-13.7,14.2-13.7,24.1
		c0,4.9,1.2,9.7,3.7,13.9c2.4,4.2,5.9,7.8,10.1,10.3c7.8,4.7,17.4,5.1,25.6,1.1c3.7-1.8,7-4.4,9.6-7.6l11,8.8
		c-3.9,4.9-8.8,8.8-14.4,11.5C451.7,82.9,445.6,84.3,439.3,84.2z"/>
	<path class="st0" d="M543.4,1.2v14.1h-24.8v68.1h-14V15.4H480V1.2L543.4,1.2z"/>
	<path class="st0" d="M555.3,83.5V1.2h14.1v82.2H555.3z"/>
	<path class="st0" d="M625.7,84.2c-7.3,0.1-14.5-1.9-20.8-5.6c-6.3-3.7-11.5-8.9-15.2-15.3c-3.7-6.4-5.7-13.6-5.6-21
		c-0.1-7.4,1.9-14.6,5.6-21c3.7-6.3,8.9-11.6,15.2-15.3c12.9-7.5,28.8-7.5,41.6,0c6.3,3.7,11.5,8.9,15.2,15.3
		c3.7,6.4,5.7,13.6,5.6,21c0.1,7.4-1.9,14.6-5.6,21c-3.6,6.3-8.9,11.6-15.2,15.3C640.2,82.3,633,84.3,625.7,84.2z M625.7,14.5
		c-4.9,0-9.6,1.3-13.8,3.8c-8.5,5.1-13.7,14.2-13.7,24.1c0,9.9,5.2,19.1,13.7,24.1c8.5,5,19.1,5,27.6,0c4.2-2.4,7.6-5.9,10-10.1
		c2.5-4.3,3.7-9.1,3.7-14c0.1-9.9-5.2-19.1-13.7-24.1C635.3,15.8,630.5,14.5,625.7,14.5z"/>
	<path class="st0" d="M695,34.6v48.9h-14V0l50.8,50.8V1.2h14v84.1L695,34.6z"/>
</g>
</svg>
