<svg viewBox="0 0 745.75 85.37" xmlns="http://www.w3.org/2000/svg"><g fill="#1d1d1b"><path d="m0 83.49v-82.24h14.12v82.24z"/><path d="m47.33 34.62v48.87h-14v-83.49l50.75 50.75v-49.5h14v84.12z"/><path d="m172.72 1.25v14.12h-24.72v68.12h-14v-68.12h-24.65v-14.12z"/><path d="m184.06 83.49v-82.24h52v14.12h-37.88v19.88h28.5v14.12h-28.5v20.13h37.88v14z"/><path d="m294.34 83.49-27.62-36.24v36.24h-14l-.13-82.24h30.13a32.86 32.86 0 0 1 11.28 1.94 27.94 27.94 0 0 1 9.31 5.56 24.22 24.22 0 0 1 6.12 8.06 22.52 22.52 0 0 1 -2.75 23.56 24 24 0 0 1 -10.5 7.75 32.49 32.49 0 0 1 -5.18 1.5 23.14 23.14 0 0 1 -4.32.63l25 33.24zm-27.62-68.12v22.13h12.28q7.36 0 11.74-2a11.64 11.64 0 0 0 4.75-3.63 8.56 8.56 0 0 0 2-5.5 9.46 9.46 0 0 0 -3.5-7.25q-4.12-3.75-11.24-3.75z"/><path d="m342.33 72.25-5.25 11.24h-15.49l38.12-82.24 36.29 82.24h-15.42l-5-11.24zm17-36.88-10.5 22.75h20.5z"/><path d="m439.34 84.24a40 40 0 0 1 -20.81-5.68 42 42 0 0 1 -15.12-15.31 41.24 41.24 0 0 1 -5.57-21 41.87 41.87 0 0 1 20.69-36.25 40.29 40.29 0 0 1 20.81-5.62 41.06 41.06 0 0 1 16.81 3.56 40.06 40.06 0 0 1 13.94 10.18l-10.38 9.38a27.83 27.83 0 0 0 -9.31-6.75 26.87 26.87 0 0 0 -11.06-2.38 26.55 26.55 0 0 0 -13.81 3.75 28.05 28.05 0 0 0 -13.69 24.13 27.52 27.52 0 0 0 3.69 13.93 27.86 27.86 0 0 0 10.06 10.25 26.69 26.69 0 0 0 25.56 1.07 28.71 28.71 0 0 0 9.56-7.63l11 8.75a41.12 41.12 0 0 1 -14.37 11.5 40.72 40.72 0 0 1 -18 4.12z"/><path d="m543.38 1.25v14.12h-24.75v68.12h-14v-68.12h-24.63v-14.12z"/><path d="m555.33 83.49v-82.24h14.13v82.24z"/><path d="m625.65 84.24a40.29 40.29 0 0 1 -20.81-5.62 42 42 0 0 1 -15.19-15.25 40.84 40.84 0 0 1 -5.62-21 40.9 40.9 0 0 1 5.62-21 42.14 42.14 0 0 1 15.19-15.25 41.34 41.34 0 0 1 41.62 0 42.06 42.06 0 0 1 15.19 15.25 40.9 40.9 0 0 1 5.62 21 40.84 40.84 0 0 1 -5.62 21 41.91 41.91 0 0 1 -15.19 15.25 40.29 40.29 0 0 1 -20.81 5.62zm0-69.74a26.55 26.55 0 0 0 -13.81 3.75 28.05 28.05 0 0 0 -13.69 24.12 28.05 28.05 0 0 0 13.69 24.13 27.3 27.3 0 0 0 27.62 0 27.75 27.75 0 0 0 10-10.13 27.43 27.43 0 0 0 3.69-14 27.82 27.82 0 0 0 -13.69-24.12 26.55 26.55 0 0 0 -13.81-3.75z"/><path d="m695 34.62v48.87h-14v-83.49l50.75 50.75v-49.5h14v84.12z"/></g></svg>