<svg viewBox="0 0 451.94 85.37" xmlns="http://www.w3.org/2000/svg"><g fill="#1d1d1b"><path d="m70.5 83.49v-39.62l-28.13 39.25-28.37-39.37v39.74h-14v-83.49l42.37 59 42.12-59v83.49z"/><path d="m139.93 84.24a40.29 40.29 0 0 1 -20.81-5.62 41.91 41.91 0 0 1 -15.19-15.25 40.84 40.84 0 0 1 -5.62-21 40.9 40.9 0 0 1 5.62-21 42 42 0 0 1 15.19-15.25 41.34 41.34 0 0 1 41.62 0 42 42 0 0 1 15.18 15.25 40.9 40.9 0 0 1 5.63 21 40.85 40.85 0 0 1 -5.63 21 42 42 0 0 1 -15.18 15.25 40.32 40.32 0 0 1 -20.81 5.62zm0-69.74a26.52 26.52 0 0 0 -13.81 3.75 28.05 28.05 0 0 0 -13.69 24.12 28.05 28.05 0 0 0 13.69 24.13 27.3 27.3 0 0 0 27.62 0 27.75 27.75 0 0 0 10-10.13 27.43 27.43 0 0 0 3.69-14 27.82 27.82 0 0 0 -13.69-24.12 26.55 26.55 0 0 0 -13.81-3.75z"/><path d="m249.57 1.25v14.12h-24.75v68.12h-14v-68.12h-24.62v-14.12z"/><path d="m261.52 83.49v-82.24h14.12v82.24z"/><path d="m331.84 84.24a40.29 40.29 0 0 1 -20.84-5.62 41.91 41.91 0 0 1 -15.19-15.25 40.85 40.85 0 0 1 -5.63-21 40.9 40.9 0 0 1 5.63-21 42 42 0 0 1 15.19-15.25 41.34 41.34 0 0 1 41.62 0 42 42 0 0 1 15.18 15.25 40.9 40.9 0 0 1 5.63 21 40.85 40.85 0 0 1 -5.63 21 42 42 0 0 1 -15.18 15.25 40.32 40.32 0 0 1 -20.78 5.62zm0-69.74a26.52 26.52 0 0 0 -13.84 3.75 28.05 28.05 0 0 0 -13.69 24.12 28.05 28.05 0 0 0 13.69 24.13 27.3 27.3 0 0 0 27.62 0 27.83 27.83 0 0 0 10-10.13 27.52 27.52 0 0 0 3.68-14 27.79 27.79 0 0 0 -13.68-24.12 26.55 26.55 0 0 0 -13.78-3.75z"/><path d="m401.19 34.62v48.87h-14v-83.49l50.75 50.75v-49.5h14v84.12z"/></g></svg>