<?xml version="1.0" encoding="utf-8"?>
<!-- Generator: Adobe Illustrator 25.2.3, SVG Export Plug-In . SVG Version: 6.00 Build 0)  -->
<svg version="1.1" id="Layer_1" xmlns="http://www.w3.org/2000/svg" xmlns:xlink="http://www.w3.org/1999/xlink" x="0px" y="0px"
	 viewBox="0 0 374.1 52.9" style="enable-background:new 0 0 374.1 52.9;" xml:space="preserve">
<g>
	<path d="M29.2,52L16.7,29.9V52H0V1.4h20l16.4,28l16.4-28h20V52H56V29.7L43,52H29.2z"/>
	<path d="M144.5,26.4c0,19.7-11.2,25.8-34.6,25.8c-24.1,0-34-8.6-34-26.7c0-16.9,10.9-24.8,33.6-24.8
		C131.4,0.7,144.5,6.4,144.5,26.4z M126.1,26.4c0-8.4-6.7-12.5-16.2-12.5c-10.5,0-15.5,4.7-15.5,12.5c0,7.3,5,12.5,15.7,12.5
		C119.9,39,126.1,35.1,126.1,26.4z"/>
	<path d="M212.8,1.4v16.7h-25V52h-16.7V18.2h-25V1.4H212.8z"/>
	<path d="M217.4,1.5h16.7V52h-16.7V1.5z"/>
	<path d="M306.5,26.4c0,19.7-11.2,25.8-34.6,25.8c-24.1,0-34-8.6-34-26.7c0-16.9,10.9-24.8,33.6-24.8
		C293.4,0.7,306.5,6.4,306.5,26.4z M288.1,26.4c0-8.4-6.7-12.5-16.2-12.5c-10.5,0-15.5,4.7-15.5,12.5c0,7.3,5,12.5,15.7,12.5
		C281.9,39,288.1,35.1,288.1,26.4z"/>
	<path d="M351.2,52l-24.8-30.5V52h-16.7V1.4H333l24.3,30v-30h16.7V52H351.2z"/>
</g>
</svg>
