<?xml version="1.0" encoding="utf-8"?>
<!-- Generator: Adobe Illustrator 23.0.3, SVG Export Plug-In . SVG Version: 6.00 Build 0)  -->
<svg version="1.1" id="Layer_1" xmlns="http://www.w3.org/2000/svg" xmlns:xlink="http://www.w3.org/1999/xlink" x="0px" y="0px"
	 viewBox="0 0 451.9 85.4" style="enable-background:new 0 0 451.9 85.4;" xml:space="preserve">
<style type="text/css">
	.st0{fill:none;}
</style>
<g>
	<path class="st0" d="M70.5,83.5V43.9L42.4,83.1L14,43.7v39.7H0V0l42.4,59L84.5,0v83.5H70.5z"/>
	<path class="st0" d="M139.9,84.2c-7.3,0.1-14.5-1.9-20.8-5.6c-6.3-3.7-11.5-8.9-15.2-15.3c-3.7-6.4-5.7-13.6-5.6-21
		c-0.1-7.4,1.9-14.6,5.6-21c3.7-6.3,8.9-11.6,15.2-15.3c12.9-7.5,28.8-7.5,41.6,0c6.3,3.7,11.5,8.9,15.2,15.3
		c3.7,6.4,5.7,13.6,5.6,21c0.1,7.4-1.9,14.6-5.6,21c-3.6,6.3-8.9,11.6-15.2,15.3C154.4,82.3,147.2,84.3,139.9,84.2z M139.9,14.5
		c-4.9,0-9.6,1.3-13.8,3.8c-8.5,5.1-13.7,14.2-13.7,24.1c0,9.9,5.2,19.1,13.7,24.1c8.5,5,19.1,5,27.6,0c4.2-2.4,7.6-5.9,10-10.1
		c2.5-4.3,3.7-9.1,3.7-14c0.1-9.9-5.2-19.1-13.7-24.1C149.6,15.8,144.8,14.5,139.9,14.5z"/>
	<path class="st0" d="M249.6,1.2v14.1h-24.8v68.1h-14V15.4h-24.6V1.2L249.6,1.2z"/>
	<path class="st0" d="M261.5,83.5V1.2h14.1v82.2H261.5z"/>
	<path class="st0" d="M331.8,84.2c-7.3,0.1-14.5-1.9-20.8-5.6c-6.3-3.7-11.5-8.9-15.2-15.3c-3.7-6.4-5.7-13.6-5.6-21
		c-0.1-7.4,1.9-14.6,5.6-21c3.7-6.3,8.9-11.6,15.2-15.3c12.9-7.5,28.8-7.5,41.6,0c6.3,3.7,11.5,8.9,15.2,15.3
		c3.7,6.4,5.7,13.6,5.6,21c0.1,7.4-1.9,14.6-5.6,21c-3.6,6.3-8.9,11.6-15.2,15.3C346.3,82.3,339.1,84.3,331.8,84.2z M331.8,14.5
		c-4.9,0-9.7,1.3-13.8,3.8c-8.5,5.1-13.7,14.2-13.7,24.1c0,9.9,5.2,19.1,13.7,24.1c8.5,5,19.1,5,27.6,0c4.2-2.5,7.6-5.9,10-10.1
		c2.5-4.3,3.7-9.1,3.7-14c0.1-9.9-5.1-19.1-13.7-24.1C341.5,15.8,336.7,14.5,331.8,14.5z"/>
	<path class="st0" d="M401.2,34.6v48.9h-14V0l50.8,50.8V1.2h14v84.1L401.2,34.6z"/>
</g>
</svg>
