<svg viewBox="0 0 468.72 188.24" xmlns="http://www.w3.org/2000/svg"><g fill="#1d1d1b"><path d="m53.12 53.37h-34.37v34.12h-14v-82.24h14v34h34.37v-34h14l.13 82.24h-14.13z"/><path d="m85.82 87.49v-82.24h52v14.12h-37.88v19.88h28.5v14.12h-28.5v20.12h37.87v14z"/><path d="m190 45.12 24.76-39.87h16.87l-34.63 54.75v27.49h-14v-27.49l-34.24-54.75h16.75z"/><path d="m286.12 87.49v-82.24h14.13v82.24z"/><path d="m324.35 0h11.49l-10.12 19.25h-8z"/><path d="m419.38 87.49v-39.62l-28.13 39.25-28.37-39.37v39.74h-14v-83.49l42.37 59 42.13-59v83.49z"/><path d="m41.5 188.24a40 40 0 0 1 -20.81-5.68 41.94 41.94 0 0 1 -15.13-15.32 42 42 0 0 1 15.13-57.24 40.3 40.3 0 0 1 20.81-5.63 41.11 41.11 0 0 1 16.81 3.57 40.16 40.16 0 0 1 13.94 10.18l-10.38 9.38a27.93 27.93 0 0 0 -9.31-6.75 26.87 26.87 0 0 0 -11.06-2.38 26.52 26.52 0 0 0 -13.81 3.75 28.13 28.13 0 0 0 .06 48.31 26.72 26.72 0 0 0 25.56 1.06 28.66 28.66 0 0 0 9.56-7.62l11 8.75a41.32 41.32 0 0 1 -32.37 15.62z"/><path d="m133.79 153.37h-34.37v34.12h-14v-82.24h14v34h34.37v-34h14l.12 82.24h-14.12z"/><path d="m179.82 176.24-5.25 11.25h-15.5l38.13-82.24 36.24 82.24h-15.37l-5-11.25zm17-36.87-10.5 22.75h20.5z"/><path d="m286.3 187.49-27.62-36.24v36.24h-14l-.13-82.24h30.13a32.78 32.78 0 0 1 11.32 1.94 27.94 27.94 0 0 1 9.31 5.56 24.25 24.25 0 0 1 6.13 8.06 22.58 22.58 0 0 1 -2.75 23.56 24.09 24.09 0 0 1 -10.5 7.75 32.32 32.32 0 0 1 -5.19 1.5 23.17 23.17 0 0 1 -4.31.63l25 33.24zm-27.62-68.12v22.13h12.25q7.36 0 11.75-2a11.77 11.77 0 0 0 4.75-3.63 8.61 8.61 0 0 0 2-5.5 9.49 9.49 0 0 0 -3.5-7.25q-4.12-3.75-11.25-3.75z"/><path d="m318.2 187.49v-82.24h14.12v68.24h37.87v14z"/><path d="m383.44 187.49v-82.24h14.13v82.24z"/><path d="m416.73 187.49v-82.24h52v14.12h-37.88v19.88h28.5v14.12h-28.5v20.12h37.87v14z"/></g></svg>