<?xml version="1.0" encoding="utf-8"?>
<!-- Generator: Adobe Illustrator 25.2.3, SVG Export Plug-In . SVG Version: 6.00 Build 0)  -->
<svg version="1.1" id="Layer_1" xmlns="http://www.w3.org/2000/svg" xmlns:xlink="http://www.w3.org/1999/xlink" x="0px" y="0px"
	 viewBox="0 0 659.1 139.6" style="enable-background:new 0 0 659.1 139.6;" xml:space="preserve">
<g>
	<path d="M68.7,23.7H51.5c0,0-1.2-8.3-17.6-8.3c-14.2,0-16.5,5.6-16.5,11.2c0,6.3,3.5,11.4,16.5,11.4c17.5,0,17.6-7,17.6-7h17.2
		c0,11.6-6.9,21.3-34.3,21.3c-26.1,0-34.4-8-34.4-25C0,7.8,11.9,1,34,1C60.1,1,68.7,10.1,68.7,23.7z"/>
	<path d="M135.4,1.4V52h-16.7V34.4H88.6V52H71.9V1.4h16.7V19h30.1V1.4H135.4z"/>
	<path d="M209.5,52H190l-3.8-8.5h-25l-3.8,8.5h-19.3l22.6-50.4h26.1L209.5,52z M180.3,28.9l-6.5-13.2l-6.5,13.2H180.3z"/>
	<path d="M249,1.4c4.8,0,21.8,0.6,21.8,18.6c0,9.4-4.4,14.4-9.3,17.1L271.8,52l-19.4-0.1L243.9,40c-4.8,0-12.4,0-15.2,0v12h-16.7
		V1.4H249z M253.7,20.5c0-4.2-4.3-4.4-6.5-4.4c-2.2,0-18.5,0-18.5,0v9.1c0,0,16.4,0,18.8,0C249.8,25.2,253.7,24.8,253.7,20.5z"/>
	<path d="M329.2,35.2V52h-53.4V1.4h16.7v33.8H329.2z"/>
	<path d="M333.7,1.4h16.7V52h-16.7V1.4z"/>
	<path d="M412.2,1.4v14h-39v4.5h36.6v13.5h-36.6V38h39v14h-55.8V1.4H412.2z"/>
	<path d="M0,138.4V88h34.6c14.7,0,28.7,3.7,28.7,25.2c0,19.5-15.5,25.2-28.6,25.2H0z M45.8,113.2c0-6.3-3.2-11.4-12.2-11.4H16.7
		v22.8h16.8C41.7,124.7,45.8,119.5,45.8,113.2z"/>
	<path d="M122,87.8v14H83v4.5h36.6v13.5H83v4.6h39v14H66.2V87.8H122z"/>
	<path d="M180.8,121.6v16.7h-53.4V87.8h16.7v33.8H180.8z"/>
	<path d="M254,138.4h-19.4l-3.8-8.5h-25l-3.8,8.5h-19.3L205.2,88h26.1L254,138.4z M224.7,115.3l-6.5-13.2l-6.5,13.2H224.7z"/>
	<path d="M321.6,87.8v50.5h-16.7v-17.6h-30.1v17.6H258V87.8h16.7v17.5h30.1V87.8H321.6z"/>
	<path d="M393.4,112.8c0,19.7-11.2,25.8-34.6,25.8c-24.1,0-34-8.6-34-26.7c0-16.9,10.9-24.8,33.6-24.8
		C380.3,87,393.4,92.7,393.4,112.8z M375,112.8c0-8.4-6.7-12.5-16.2-12.5c-10.5,0-15.5,4.7-15.5,12.5c0,7.3,5,12.5,15.7,12.5
		C368.8,125.3,375,121.5,375,112.8z"/>
	<path d="M400.9,128.4c-2.9-5.7-3.5-12.8-3.5-28.5l0-12.2h17.7c0,0,0,16.4,0,22.6c0,6.2,1.4,14.1,15.1,14.1s14.7-7.9,14.7-14.1
		c0-6.2,0-22.6,0-22.6h17.7l0,12.2c0,15.6-0.6,22.8-3.5,28.5c-4.1,7.9-15.3,9.9-28.9,9.9C416.6,138.4,405,136.3,400.9,128.4z"/>
	<path d="M529.3,106.3c0,0-15,0-17.9,0c0-2.7-1-4.1-14.3-4.1c-12.8,0-13.9,0.6-13.9,2.5c0.1,1.3,1,1.4,13.7,2.4
		c28,2.3,34,2.7,34,15.7c0,13-4.9,15.7-33.8,15.7c-26.7,0-30.8-2.6-30.8-17.4c0,0,15.2,0,17.3,0c0,3,1.3,3.7,14.2,3.7
		c12.1,0,13.5,0.1,13.5-2.2c0-1.6-1.5-1.3-14.7-2.4c-20.5-1.7-31-2.7-31-15.7c0-15,8.7-16.5,31-16.5
		C523.2,88,529.3,91.6,529.3,106.3z"/>
	<path d="M597.8,106.3c0,0-15,0-17.9,0c0-2.7-1-4.1-14.3-4.1c-12.8,0-13.9,0.6-13.9,2.5c0.1,1.3,1,1.4,13.7,2.4
		c28,2.3,34,2.7,34,15.7c0,13-4.9,15.7-33.8,15.7c-26.7,0-30.8-2.6-30.8-17.4c0,0,15.2,0,17.3,0c0,3,1.3,3.7,14.2,3.7
		c12.1,0,13.5,0.1,13.5-2.2c0-1.6-1.5-1.3-14.7-2.4c-20.5-1.7-31-2.7-31-15.7c0-15,8.7-16.5,31-16.5
		C591.6,88,597.8,91.6,597.8,106.3z"/>
	<path d="M659.1,87.8v14h-39v4.5h36.6v13.5H620v4.6h39v14h-55.8V87.8H659.1z"/>
</g>
</svg>
