<?xml version="1.0" encoding="utf-8"?>
<!-- Generator: Adobe Illustrator 23.0.3, SVG Export Plug-In . SVG Version: 6.00 Build 0)  -->
<svg version="1.1" id="Layer_1" xmlns="http://www.w3.org/2000/svg" xmlns:xlink="http://www.w3.org/1999/xlink" x="0px" y="0px"
	 viewBox="0 0 866.8 83.9" style="enable-background:new 0 0 866.8 83.9;" xml:space="preserve">
<style type="text/css">
	.st0{fill:none;}
</style>
<g>
	<path class="st0" d="M0,83.1V0.9h30.6c3.6,0,7.2,0.6,10.6,1.8c3.3,1.2,6.4,2.9,9.1,5.2c2.7,2.3,4.8,5.1,6.4,8.3
		c3,6.2,3,13.5,0,19.7c-1.6,3.2-3.7,6-6.4,8.4c-2.7,2.3-5.8,4-9.1,5.2c-3.4,1.2-7,1.8-10.6,1.8H14l0.1,31.9H0z M14,37.1h16.6
		c3.8,0.2,7.5-1.1,10.4-3.6c2.4-1.8,3.8-4.5,3.8-7.5c0-2.9-1.4-5.7-3.8-7.5c-2.9-2.4-6.6-3.6-10.4-3.5H14L14,37.1z"/>
	<path class="st0" d="M119,49H84.6v34.1h-14V0.9h14v34H119v-34h14l0.1,82.2H119L119,49z"/>
	<path class="st0" d="M188.5,83.9c-7.3,0-14.5-1.9-20.8-5.6c-6.3-3.7-11.5-8.9-15.2-15.2c-3.7-6.4-5.7-13.6-5.6-21
		c-0.1-7.4,1.9-14.6,5.6-21c3.6-6.3,8.9-11.6,15.2-15.3c12.9-7.5,28.8-7.5,41.6,0c6.3,3.7,11.5,8.9,15.2,15.3
		c3.7,6.4,5.7,13.6,5.6,21c0.1,7.4-1.9,14.6-5.6,21c-3.7,6.3-8.9,11.6-15.2,15.2C203,82,195.8,83.9,188.5,83.9z M188.5,14.1
		c-4.9,0-9.6,1.3-13.8,3.8C166.2,22.9,161,32.1,161,42c0,9.9,5.2,19.1,13.7,24.1c8.5,5,19.1,5,27.6,0c8.5-5,13.7-14.2,13.7-24.1
		c0-4.9-1.2-9.7-3.7-14c-2.4-4.2-5.8-7.7-10-10.1C198.1,15.4,193.3,14.1,188.5,14.1z"/>
	<path class="st0" d="M298.1,0.9V15h-24.8v68.1h-14V15h-24.6V0.9L298.1,0.9z"/>
	<path class="st0" d="M344.5,83.9c-7.3,0-14.5-1.9-20.8-5.6c-6.3-3.7-11.5-8.9-15.2-15.2c-3.7-6.4-5.7-13.6-5.6-21
		c-0.1-7.4,1.9-14.6,5.6-21c3.6-6.3,8.9-11.6,15.2-15.3c12.9-7.5,28.8-7.5,41.6,0c6.3,3.7,11.5,8.9,15.2,15.3
		c3.7,6.4,5.7,13.6,5.6,21c0.1,7.4-1.9,14.6-5.6,21c-3.6,6.3-8.9,11.6-15.2,15.2C359,82,351.8,83.9,344.5,83.9z M344.5,14.1
		c-4.9,0-9.6,1.3-13.8,3.8C322.1,22.9,317,32.1,317,42c0,9.9,5.2,19.1,13.7,24.1c8.5,5,19.1,5,27.6,0c13.3-7.8,17.8-25,9.9-38.3
		c-2.4-4.1-5.8-7.5-9.9-9.9C354.1,15.4,349.3,14.1,344.5,14.1z"/>
	<path class="st0" d="M467.3,83.1h-30.9c-7.3,0.1-14.4-1.9-20.7-5.6c-6.2-3.6-11.4-8.9-15-15.1c-3.7-6.3-5.6-13.5-5.6-20.8
		c-0.1-7.3,1.9-14.5,5.6-20.8c3.6-6.3,8.8-11.5,15-15.2c6.2-3.7,13.4-5.7,20.7-5.6c5.7,0,11.4,1.2,16.6,3.5c5.3,2.3,10,5.7,13.7,10
		l-10.3,9.4c-2.5-2.8-5.6-5-9.1-6.5c-3.4-1.5-7.1-2.3-10.9-2.3c-4.8,0-9.5,1.2-13.6,3.7c-4.1,2.4-7.6,5.9-9.9,10
		c-2.5,4.2-3.7,9-3.7,13.8c0,4.9,1.2,9.6,3.7,13.8c2.4,4.1,5.8,7.6,9.9,10c4.1,2.4,8.8,3.7,13.6,3.7h16.9V51.8h-19.6v-14h33.6V83.1z
		"/>
	<path class="st0" d="M527.2,83.1l-27.6-36.3v36.3h-14l-0.1-82.2h30.1c3.9,0,7.7,0.6,11.3,1.9c3.4,1.2,6.6,3.1,9.3,5.6
		c2.6,2.2,4.7,5,6.1,8.1c3.6,7.7,2.6,16.9-2.8,23.6c-2.7,3.5-6.4,6.2-10.5,7.8c-1.7,0.6-3.4,1.1-5.2,1.5c-1.4,0.3-2.9,0.5-4.3,0.6
		l25,33.3H527.2z M499.5,15v22.1h12.3c4.9,0,8.8-0.7,11.8-2c1.9-0.8,3.5-2,4.8-3.6c1.3-1.5,2-3.5,2-5.5c0-2.8-1.3-5.5-3.5-7.3
		c-2.7-2.5-6.5-3.8-11.3-3.8L499.5,15z"/>
	<path class="st0" d="M575.2,71.9l-5.3,11.3h-15.5l38.1-82.2l36.2,82.2h-15.4l-5-11.3H575.2z M592.2,35l-10.5,22.8h20.5L592.2,35z"
		/>
	<path class="st0" d="M639.9,83.1V0.9h30.6c3.6,0,7.2,0.6,10.6,1.8c3.3,1.2,6.4,2.9,9.1,5.2c2.7,2.3,4.8,5.1,6.4,8.3
		c3,6.2,3,13.5,0,19.7c-1.6,3.2-3.7,6-6.4,8.4c-2.7,2.3-5.8,4-9.1,5.2c-3.4,1.2-7,1.8-10.6,1.8h-16.6l0.1,31.9H639.9z M653.9,37.1
		h16.6c3.8,0.2,7.5-1.1,10.4-3.6c2.4-1.8,3.8-4.5,3.8-7.5c0-2.9-1.4-5.7-3.8-7.5c-2.9-2.4-6.6-3.6-10.4-3.5h-16.6V37.1z"/>
	<path class="st0" d="M758.9,49h-34.4v34.1h-14V0.9h14v34h34.4v-34h14l0.1,82.2h-14.1V49z"/>
	<path class="st0" d="M825.2,40.7L850,0.9h16.9l-34.7,54.7v27.5h-14V55.6L784,0.9h16.8L825.2,40.7z"/>
</g>
</svg>
