<svg viewBox="0 0 866.84 83.87" xmlns="http://www.w3.org/2000/svg"><g fill="#1d1d1b"><path d="m0 83.12v-82.24h30.62a31 31 0 0 1 10.56 1.81 29.21 29.21 0 0 1 9.07 5.18 26 26 0 0 1 6.37 8.32 22.64 22.64 0 0 1 0 19.68 27.56 27.56 0 0 1 -6.37 8.38 29 29 0 0 1 -9.07 5.18 31 31 0 0 1 -10.56 1.82h-16.62l.12 31.87zm14-46h16.62a14.86 14.86 0 0 0 10.38-3.62 9.23 9.23 0 0 0 3.75-7.5 9.45 9.45 0 0 0 -3.75-7.5 15.5 15.5 0 0 0 -10.38-3.5h-16.62z"/><path d="m119 49h-34.39v34.12h-14v-82.24h14v34h34.39v-34h14l.12 82.24h-14.12z"/><path d="m188.46 83.87a40.3 40.3 0 0 1 -20.81-5.63 41.88 41.88 0 0 1 -15.19-15.24 40.9 40.9 0 0 1 -5.62-21 40.9 40.9 0 0 1 5.62-21 41.91 41.91 0 0 1 15.19-15.25 41.27 41.27 0 0 1 41.62 0 42 42 0 0 1 15.19 15.25 40.9 40.9 0 0 1 5.62 21 40.9 40.9 0 0 1 -5.62 21 42 42 0 0 1 -15.19 15.24 40.33 40.33 0 0 1 -20.81 5.63zm0-69.75a26.52 26.52 0 0 0 -13.81 3.75 28.05 28.05 0 0 0 -13.65 24.13 28.05 28.05 0 0 0 13.69 24.12 27.3 27.3 0 0 0 27.62 0 27.82 27.82 0 0 0 13.69-24.12 27.46 27.46 0 0 0 -3.69-14 27.75 27.75 0 0 0 -10-10.13 26.55 26.55 0 0 0 -13.85-3.75z"/><path d="m298.1.88v14.12h-24.75v68.12h-14v-68.12h-24.62v-14.12z"/><path d="m344.45 83.87a40.37 40.37 0 0 1 -20.82-5.63 41.93 41.93 0 0 1 -15.18-15.24 40.9 40.9 0 0 1 -5.63-21 40.9 40.9 0 0 1 5.63-21 42 42 0 0 1 15.18-15.25 41.29 41.29 0 0 1 41.63 0 42 42 0 0 1 15.18 15.25 40.9 40.9 0 0 1 5.63 21 40.9 40.9 0 0 1 -5.63 21 41.93 41.93 0 0 1 -15.18 15.24 40.33 40.33 0 0 1 -20.81 5.63zm0-69.75a26.58 26.58 0 0 0 -13.82 3.75 28 28 0 0 0 -13.63 24.13 28 28 0 0 0 13.68 24.12 27.32 27.32 0 0 0 27.63 0 28 28 0 0 0 0-48.25 26.55 26.55 0 0 0 -13.86-3.75z"/><path d="m467.27 83.12h-30.87a40 40 0 0 1 -20.68-5.56 41.3 41.3 0 0 1 -15-15.13 40.63 40.63 0 0 1 -5.56-20.81 40.65 40.65 0 0 1 5.56-20.81 41.85 41.85 0 0 1 15-15.19 39.72 39.72 0 0 1 20.68-5.62 41.16 41.16 0 0 1 16.6 3.5 39 39 0 0 1 13.74 10l-10.34 9.37a26.16 26.16 0 0 0 -9.12-6.5 27.36 27.36 0 0 0 -10.88-2.25 26.28 26.28 0 0 0 -13.62 3.69 27.55 27.55 0 0 0 -9.94 10 26.88 26.88 0 0 0 -3.69 13.81 26.85 26.85 0 0 0 3.69 13.81 27.47 27.47 0 0 0 9.94 10 26.28 26.28 0 0 0 13.62 3.69h16.88v-17.37h-19.63v-14h33.62z"/><path d="m527.16 83.12-27.63-36.25v36.25h-14l-.12-82.24h30.12a32.77 32.77 0 0 1 11.31 1.93 28.32 28.32 0 0 1 9.32 5.56 24.49 24.49 0 0 1 6.12 8.07 22.52 22.52 0 0 1 -2.75 23.56 24.13 24.13 0 0 1 -10.53 7.75 34.52 34.52 0 0 1 -5.19 1.5 23.6 23.6 0 0 1 -4.31.62l25 33.25zm-27.63-68.12v22.12h12.25q7.38 0 11.75-2a11.68 11.68 0 0 0 4.75-3.62 8.63 8.63 0 0 0 2-5.5 9.48 9.48 0 0 0 -3.5-7.25q-4.12-3.75-11.25-3.75z"/><path d="m575.15 71.87-5.25 11.25h-15.5l38.13-82.24 36.24 82.24h-15.37l-5-11.25zm17-36.87-10.5 22.75h20.5z"/><path d="m639.88 83.12v-82.24h30.63a31.09 31.09 0 0 1 10.56 1.81 29.27 29.27 0 0 1 9.06 5.18 26 26 0 0 1 6.38 8.32 22.64 22.64 0 0 1 0 19.68 27.59 27.59 0 0 1 -6.38 8.38 29.07 29.07 0 0 1 -9.06 5.18 31.1 31.1 0 0 1 -10.56 1.82h-16.63l.12 31.87zm14-46h16.63a14.83 14.83 0 0 0 10.37-3.62 9.23 9.23 0 0 0 3.75-7.5 9.45 9.45 0 0 0 -3.75-7.5 15.49 15.49 0 0 0 -10.37-3.5h-16.63z"/><path d="m758.86 49h-34.37v34.12h-14v-82.24h14v34h34.37v-34h14l.14 82.24h-14.14z"/><path d="m825.22 40.75 24.78-39.87h16.87l-34.65 54.74v27.5h-14v-27.5l-34.22-54.74h16.75z"/></g></svg>