<?xml version="1.0" encoding="utf-8"?>
<!-- Generator: Adobe Illustrator 25.2.3, SVG Export Plug-In . SVG Version: 6.00 Build 0)  -->
<svg version="1.1" id="Layer_1" xmlns="http://www.w3.org/2000/svg" xmlns:xlink="http://www.w3.org/1999/xlink" x="0px" y="0px"
	 viewBox="0 0 386.1 83.7" style="enable-background:new 0 0 386.1 83.7;" xml:space="preserve">
<style type="text/css">
	.st0{fill:none;}
</style>
<g>
	<path class="st0" d="M0,82.9V0.7h30.6c3.6,0,7.2,0.6,10.6,1.8c3.3,1.2,6.4,2.9,9.1,5.2s4.8,5.1,6.4,8.3c3,6.2,3,13.5,0,19.7
		c-1.6,3.2-3.7,6-6.4,8.4c-2.7,2.3-5.8,4-9.1,5.2c-3.4,1.2-7,1.8-10.6,1.8H14L14.1,83H0V82.9z M14,36.9h16.6
		c3.8,0.2,7.5-1.1,10.4-3.6c2.4-1.8,3.8-4.5,3.8-7.5c0-2.9-1.4-5.7-3.8-7.5c-2.9-2.4-6.6-3.6-10.4-3.5H14V36.9z"/>
	<path class="st0" d="M119,48.8H84.6v34.1h-14V0.7h14v34H119v-34h14l0.1,82.2H119V48.8z"/>
	<path class="st0" d="M188.5,83.7c-7.3,0-14.5-1.9-20.8-5.6s-11.5-8.9-15.2-15.2c-3.7-6.4-5.7-13.6-5.6-21c-0.1-7.4,1.9-14.6,5.6-21
		c3.6-6.3,8.9-11.6,15.2-15.3c12.9-7.5,28.8-7.5,41.6,0c6.3,3.7,11.5,8.9,15.2,15.3s5.7,13.6,5.6,21c0.1,7.4-1.9,14.6-5.6,21
		c-3.7,6.3-8.9,11.6-15.2,15.2C203,81.8,195.8,83.7,188.5,83.7z M188.5,13.9c-4.9,0-9.6,1.3-13.8,3.8c-8.5,5-13.7,14.2-13.7,24.1
		s5.2,19.1,13.7,24.1s19.1,5,27.6,0S216,51.7,216,41.8c0-4.9-1.2-9.7-3.7-14c-2.4-4.2-5.8-7.7-10-10.1
		C198.1,15.2,193.3,13.9,188.5,13.9z"/>
	<path class="st0" d="M298.1,0.7v14.1h-24.8v68.1h-14V14.8h-24.6V0.7H298.1z"/>
	<path class="st0" d="M344.5,83.7c-7.3,0-14.5-1.9-20.8-5.6s-11.5-8.9-15.2-15.2c-3.7-6.4-5.7-13.6-5.6-21c-0.1-7.4,1.9-14.6,5.6-21
		c3.6-6.3,8.9-11.6,15.2-15.3c12.9-7.5,28.8-7.5,41.6,0c6.3,3.7,11.5,8.9,15.2,15.3s5.7,13.6,5.6,21c0.1,7.4-1.9,14.6-5.6,21
		c-3.6,6.3-8.9,11.6-15.2,15.2C359,81.8,351.8,83.7,344.5,83.7z M344.5,13.9c-4.9,0-9.6,1.3-13.8,3.8c-8.6,5-13.7,14.2-13.7,24.1
		s5.2,19.1,13.7,24.1s19.1,5,27.6,0c13.3-7.8,17.8-25,9.9-38.3c-2.4-4.1-5.8-7.5-9.9-9.9C354.1,15.2,349.3,13.9,344.5,13.9z"/>
</g>
</svg>
