<?xml version="1.0" encoding="utf-8"?>
<!-- Generator: Adobe Illustrator 25.2.3, SVG Export Plug-In . SVG Version: 6.00 Build 0)  -->
<svg version="1.1" id="Layer_1" xmlns="http://www.w3.org/2000/svg" xmlns:xlink="http://www.w3.org/1999/xlink" x="0px" y="0px"
	 viewBox="0 0 336 53.3" style="enable-background:new 0 0 336 53.3;" xml:space="preserve">
<g>
	<path d="M35.5,1.6c4.8,0,21.8,0.7,21.8,19.4C57.2,39.8,41.2,42,36,42c-4.2,0-15.1,0-19.3,0v10.3H0V1.6H35.5z M41.6,21.6
		c0-4.9-4.6-5.1-6.9-5.1c-2.4,0-17.9,0-17.9,0v10.5c0,0,15.6,0,18.2,0C37.5,27.1,41.6,26.5,41.6,21.6z"/>
	<path d="M124.8,1.7v50.5H108V34.6H77.9v17.6H61.2V1.7h16.7v17.5H108V1.7H124.8z"/>
	<path d="M196.6,26.7c0,19.7-11.2,25.8-34.6,25.8c-24.1,0-34-8.6-34-26.7c0-16.9,10.9-24.8,33.6-24.8
		C183.5,0.9,196.6,6.6,196.6,26.7z M178.2,26.7c0-8.4-6.7-12.5-16.2-12.5c-10.5,0-15.5,4.7-15.5,12.5c0,7.3,5,12.5,15.7,12.5
		C172,39.2,178.2,35.3,178.2,26.7z"/>
	<path d="M265,1.6v16.7h-25v33.8h-16.7V18.4h-25V1.6H265z"/>
	<path d="M336,26.7c0,19.7-11.2,25.8-34.6,25.8c-24.1,0-34-8.6-34-26.7c0-16.9,10.9-24.8,33.6-24.8C322.8,0.9,336,6.6,336,26.7z
		 M317.5,26.7c0-8.4-6.7-12.5-16.2-12.5c-10.5,0-15.5,4.7-15.5,12.5c0,7.3,5,12.5,15.7,12.5C311.3,39.2,317.5,35.3,317.5,26.7z"/>
</g>
</svg>
